HIERARCHY
ROOT Hips
{
	OFFSET 0.000000 83.214638 0.000000
	CHANNELS 6 Xposition Yposition Zposition Xrotation Yrotation Zrotation
	JOINT Pelvis
	{
		OFFSET 0.000000 0.000000 0.000000
		CHANNELS 3 Xrotation Yrotation Zrotation
		JOINT LeftUpLeg
		{
			OFFSET 8.479700 -4.795502 -0.379100
			CHANNELS 3 Xrotation Yrotation Zrotation
			JOINT LeftLeg
			{
				OFFSET 0.024144 -32.555107 0.112900
				CHANNELS 3 Xrotation Yrotation Zrotation
				JOINT LeftFoot
				{
					OFFSET -0.024144 -32.638630 -3.012600
					CHANNELS 3 Xrotation Yrotation Zrotation
					JOINT LeftToeBase
					{
						OFFSET 0.970200 -13.225400 11.864200
						CHANNELS 3 Xrotation Yrotation Zrotation
						End Site
						{
							OFFSET 0.000000 12.319262 0.000000
						}
					}
					JOINT LFootTongue
					{
						OFFSET 1.142400 -1.059800 6.665200
						CHANNELS 3 Xrotation Yrotation Zrotation
						End Site
						{
							OFFSET 0.000000 12.319262 0.000000
						}
					}
				}
				JOINT LeftPantLeg
				{
					OFFSET 0.918482 -16.533964 -2.284700
					CHANNELS 3 Xrotation Yrotation Zrotation
					End Site
					{
						OFFSET 0.350399 24.744368 0.000000
					}
				}
			}
		}
		JOINT RightUpLeg
		{
			OFFSET -8.479700 -4.795502 -0.379100
			CHANNELS 3 Xrotation Yrotation Zrotation
			JOINT RightLeg
			{
				OFFSET -0.023144 -32.555092 0.112900
				CHANNELS 3 Xrotation Yrotation Zrotation
				JOINT RightFoot
				{
					OFFSET 0.023144 -32.638641 -3.012700
					CHANNELS 3 Xrotation Yrotation Zrotation
					JOINT RightToeBase
					{
						OFFSET -0.970200 -13.225400 11.864200
						CHANNELS 3 Xrotation Yrotation Zrotation
						End Site
						{
							OFFSET 0.000000 12.319244 0.000000
						}
					}
					JOINT RFootTongue
					{
						OFFSET -1.142200 -1.059800 6.665200
						CHANNELS 3 Xrotation Yrotation Zrotation
						End Site
						{
							OFFSET 0.000000 12.319243 0.000000
						}
					}
				}
				JOINT RightPantLeg
				{
					OFFSET -0.919482 -16.533978 -2.284800
					CHANNELS 3 Xrotation Yrotation Zrotation
					End Site
					{
						OFFSET -0.350400 24.744419 0.000000
					}
				}
			}
		}
	}
	JOINT Spine
	{
		OFFSET 0.000000 7.722000 1.166200
		CHANNELS 3 Xrotation Yrotation Zrotation
		JOINT Spine1
		{
			OFFSET 0.000000 12.024101 0.248800
			CHANNELS 3 Xrotation Yrotation Zrotation
			JOINT Spine2
			{
				OFFSET 0.000000 11.502998 -0.491200
				CHANNELS 3 Xrotation Yrotation Zrotation
				JOINT Neck
				{
					OFFSET 0.000000 18.430702 -3.123100
					CHANNELS 3 Xrotation Yrotation Zrotation
					JOINT Head
					{
						OFFSET 0.000000 9.051102 1.034000
						CHANNELS 3 Xrotation Yrotation Zrotation
						JOINT HairB
						{
							OFFSET 0.208400 24.786102 24.822300
							CHANNELS 3 Xrotation Yrotation Zrotation
							End Site
							{
								OFFSET 0.000000 32.263779 0.000000
							}
						}
						JOINT HairA
						{
							OFFSET -7.081100 24.428299 23.196600
							CHANNELS 3 Xrotation Yrotation Zrotation
							End Site
							{
								OFFSET 0.000000 32.263779 0.000000
							}
						}
						JOINT Hat
						{
							OFFSET 16.728800 15.048294 -15.439601
							CHANNELS 3 Xrotation Yrotation Zrotation
							End Site
							{
								OFFSET 0.000000 32.263779 0.000000
							}
						}
					}
				}
				JOINT LeftShoulder
				{
					OFFSET 6.197800 13.665199 -4.064700
					CHANNELS 3 Xrotation Yrotation Zrotation
					JOINT LeftArm
					{
						OFFSET 7.778100 -0.187103 -1.709300
						CHANNELS 3 Xrotation Yrotation Zrotation
						JOINT LeftForeArm
						{
							OFFSET 22.049376 0.000000 0.000000
							CHANNELS 3 Xrotation Yrotation Zrotation
							JOINT LeftHand
							{
								OFFSET 23.009392 0.000000 0.000000
								CHANNELS 3 Xrotation Yrotation Zrotation
								JOINT LeftHandThumb1
								{
									OFFSET 3.507191 -2.063065 3.133727
									CHANNELS 3 Xrotation Yrotation Zrotation
									JOINT LeftHandThumb2
									{
										OFFSET 3.101337 -1.790558 1.790558
										CHANNELS 3 Xrotation Yrotation Zrotation
										JOINT LeftHandThumb3
										{
											OFFSET 3.058640 -1.765907 1.765906
											CHANNELS 3 Xrotation Yrotation Zrotation
											End Site
											{
												OFFSET -0.415260 3.926476 -0.049563
											}
										}
									}
								}
								JOINT LeftHandIndex1
								{
									OFFSET 11.334419 -0.901459 3.706815
									CHANNELS 3 Xrotation Yrotation Zrotation
									JOINT LeftHandIndex2
									{
										OFFSET 3.283112 0.000000 0.000000
										CHANNELS 3 Xrotation Yrotation Zrotation
										JOINT LeftHandIndex3
										{
											OFFSET 3.323853 0.000000 0.000000
											CHANNELS 3 Xrotation Yrotation Zrotation
											End Site
											{
												OFFSET -1.135597 3.097809 0.402452
											}
										}
									}
								}
								JOINT LeftHandMiddle1
								{
									OFFSET 11.335861 0.000000 0.000000
									CHANNELS 3 Xrotation Yrotation Zrotation
									JOINT LeftHandMiddle2
									{
										OFFSET 3.410492 0.000000 0.000000
										CHANNELS 3 Xrotation Yrotation Zrotation
										JOINT LeftHandMiddle3
										{
											OFFSET 3.312172 0.000000 0.000000
											CHANNELS 3 Xrotation Yrotation Zrotation
											End Site
											{
												OFFSET -1.150200 3.080154 0.400270
											}
										}
									}
								}
								JOINT LeftHandRing1
								{
									OFFSET 11.514786 -0.013176 -3.003090
									CHANNELS 3 Xrotation Yrotation Zrotation
									JOINT LeftHandRing2
									{
										OFFSET 3.053307 0.000000 0.000000
										CHANNELS 3 Xrotation Yrotation Zrotation
										JOINT LeftHandRing3
										{
											OFFSET 3.295807 0.000000 0.000000
											CHANNELS 3 Xrotation Yrotation Zrotation
											End Site
											{
												OFFSET -1.281006 3.013344 0.375733
											}
										}
									}
								}
								JOINT LeftHandPinky1
								{
									OFFSET 10.518692 -0.960396 -5.730441
									CHANNELS 3 Xrotation Yrotation Zrotation
									JOINT LeftHandPinky2
									{
										OFFSET 2.861649 0.000000 0.000000
										CHANNELS 3 Xrotation Yrotation Zrotation
										JOINT LeftHandPinky3
										{
											OFFSET 2.863380 0.000000 0.000000
											CHANNELS 3 Xrotation Yrotation Zrotation
											End Site
											{
												OFFSET -0.843597 2.711159 0.369971
											}
										}
									}
								}
							}
							JOINT LSleeve
							{
								OFFSET 6.676277 -0.344902 -1.011730
								CHANNELS 3 Xrotation Yrotation Zrotation
								End Site
								{
									OFFSET 0.000000 14.885353 0.000000
								}
							}
						}
					}
				}
				JOINT RightShoulder
				{
					OFFSET -6.197800 13.665199 -4.064700
					CHANNELS 3 Xrotation Yrotation Zrotation
					JOINT RightArm
					{
						OFFSET -7.778100 -0.187103 -1.709300
						CHANNELS 3 Xrotation Yrotation Zrotation
						JOINT RightForeArm
						{
							OFFSET -22.049376 0.000000 0.000000
							CHANNELS 3 Xrotation Yrotation Zrotation
							JOINT RightHand
							{
								OFFSET -23.009392 0.000000 0.000000
								CHANNELS 3 Xrotation Yrotation Zrotation
								JOINT RightHandThumb1
								{
									OFFSET -3.507191 -2.063065 3.133727
									CHANNELS 3 Xrotation Yrotation Zrotation
									JOINT RightHandThumb2
									{
										OFFSET -3.101337 -1.790558 1.790558
										CHANNELS 3 Xrotation Yrotation Zrotation
										JOINT RightHandThumb3
										{
											OFFSET -3.058640 -1.765907 1.765906
											CHANNELS 3 Xrotation Yrotation Zrotation
											End Site
											{
												OFFSET 0.415260 3.926476 -0.049563
											}
										}
									}
								}
								JOINT RightHandIndex1
								{
									OFFSET -11.334419 -0.901459 3.706815
									CHANNELS 3 Xrotation Yrotation Zrotation
									JOINT RightHandIndex2
									{
										OFFSET -3.283112 0.000000 0.000000
										CHANNELS 3 Xrotation Yrotation Zrotation
										JOINT RightHandIndex3
										{
											OFFSET -3.323853 0.000000 0.000000
											CHANNELS 3 Xrotation Yrotation Zrotation
											End Site
											{
												OFFSET 1.135597 3.097809 0.402452
											}
										}
									}
								}
								JOINT RightHandMiddle1
								{
									OFFSET -11.335861 0.000000 0.000000
									CHANNELS 3 Xrotation Yrotation Zrotation
									JOINT RightHandMiddle2
									{
										OFFSET -3.410492 0.000000 0.000000
										CHANNELS 3 Xrotation Yrotation Zrotation
										JOINT RightHandMiddle3
										{
											OFFSET -3.312172 0.000000 0.000000
											CHANNELS 3 Xrotation Yrotation Zrotation
											End Site
											{
												OFFSET 1.150200 3.080154 0.400270
											}
										}
									}
								}
								JOINT RightHandRing1
								{
									OFFSET -11.514786 -0.013176 -3.003090
									CHANNELS 3 Xrotation Yrotation Zrotation
									JOINT RightHandRing2
									{
										OFFSET -3.053307 0.000000 0.000000
										CHANNELS 3 Xrotation Yrotation Zrotation
										JOINT RightHandRing3
										{
											OFFSET -3.295807 0.000000 0.000000
											CHANNELS 3 Xrotation Yrotation Zrotation
											End Site
											{
												OFFSET 1.281006 3.013344 0.375733
											}
										}
									}
								}
								JOINT RightHandPinky1
								{
									OFFSET -10.518692 -0.960396 -5.730441
									CHANNELS 3 Xrotation Yrotation Zrotation
									JOINT RightHandPinky2
									{
										OFFSET -2.861649 0.000000 0.000000
										CHANNELS 3 Xrotation Yrotation Zrotation
										JOINT RightHandPinky3
										{
											OFFSET -2.863380 0.000000 0.000000
											CHANNELS 3 Xrotation Yrotation Zrotation
											End Site
											{
												OFFSET 0.843597 2.711159 0.369971
											}
										}
									}
								}
							}
							JOINT RSleeve
							{
								OFFSET -6.676277 -0.344902 -1.011730
								CHANNELS 3 Xrotation Yrotation Zrotation
								End Site
								{
									OFFSET 0.000000 14.885353 0.000000
								}
							}
						}
					}
				}
				JOINT Backpack
				{
					OFFSET 0.000000 -2.471497 36.677502
					CHANNELS 3 Xrotation Yrotation Zrotation
					End Site
					{
						OFFSET 0.000000 20.427315 0.000000
					}
				}
				JOINT Hood
				{
					OFFSET 0.000000 18.754097 -10.431000
					CHANNELS 3 Xrotation Yrotation Zrotation
					JOINT Hood1
					{
						OFFSET 0.000000 -5.011002 -7.685901
						CHANNELS 3 Xrotation Yrotation Zrotation
						End Site
						{
							OFFSET 0.000000 9.175140 0.000000
						}
					}
				}
				JOINT LHoodieString
				{
					OFFSET 5.250500 16.397697 3.089900
					CHANNELS 3 Xrotation Yrotation Zrotation
					JOINT LHoodieString1
					{
						OFFSET 0.257700 -6.364304 3.694600
						CHANNELS 3 Xrotation Yrotation Zrotation
						JOINT LHoodieString2
						{
							OFFSET 0.000000 -9.643799 2.679100
							CHANNELS 3 Xrotation Yrotation Zrotation
							End Site
							{
								OFFSET 0.000000 10.009018 0.000000
							}
						}
					}
				}
				JOINT RHoodieString
				{
					OFFSET -5.250500 16.397697 3.089900
					CHANNELS 3 Xrotation Yrotation Zrotation
					JOINT RHoodieString1
					{
						OFFSET -0.257700 -6.364304 3.694600
						CHANNELS 3 Xrotation Yrotation Zrotation
						JOINT RHoodieString2
						{
							OFFSET 0.000000 -9.643799 2.679100
							CHANNELS 3 Xrotation Yrotation Zrotation
							End Site
							{
								OFFSET 0.000000 10.009018 0.000000
							}
						}
					}
				}
			}
			JOINT LBackpack_Strap
			{
				OFFSET 15.223200 -7.719803 -6.610900
				CHANNELS 3 Xrotation Yrotation Zrotation
				End Site
				{
					OFFSET 0.000000 16.040596 0.000000
				}
			}
			JOINT RBackpack_Strap
			{
				OFFSET -15.223000 -7.719803 -6.610900
				CHANNELS 3 Xrotation Yrotation Zrotation
				End Site
				{
					OFFSET 0.000000 16.040596 0.000000
				}
			}
		}
	}
	JOINT BoyFacialAnim_Joint
	{
		OFFSET 1.000000 -82.208099 -1.550900
		CHANNELS 3 Xrotation Yrotation Zrotation
		End Site
		{
			OFFSET 0.000000 30.012791 0.000000
		}
	}
}
MOTION
Frames: 4
Frame Time: 0.016667
-0.701957 43.842995 -2.115353 0.665919 -24.268729 9.364827 -0.000000 -0.000001 0.000000 -79.949632 -8.816409 47.172661 74.584429 6.907231 -5.684027 22.720676 -1.516747 -11.621118 -0.000000 -0.000001 0.000000 -0.000000 -0.000001 0.000000 -0.000001 -0.000001 -0.000002 -23.433443 -6.332975 -17.385581 107.675385 5.105448 -1.119658 24.862727 3.448761 20.846769 0.000001 0.000000 0.000000 0.000001 0.000000 0.000000 0.000000 0.000000 -0.000004 2.861017 -1.282880 -6.004214 2.227984 -1.286566 -3.027762 2.233817 -1.285668 -3.025123 -3.962407 3.288526 2.946571 -0.115029 19.920375 2.691782 0.000001 -0.000000 0.000001 0.000001 -0.000000 0.000001 0.000001 -0.000000 0.000001 0.452720 1.693817 1.739611 -1.798692 -11.700856 -58.798653 0.000529 -83.306718 0.000575 -56.402924 17.147781 27.573284 -1.540050 3.690172 6.142351 3.939067 7.948710 0.746808 0.000000 -0.000001 -0.000000 1.016542 3.605832 -31.478689 1.016538 3.605844 -31.478713 0.000002 0.000000 -0.000002 1.299291 4.030449 -35.722876 1.301553 4.033585 -35.754985 0.000000 -0.000000 0.000000 1.751616 4.592872 -41.733682 1.751609 4.592888 -41.733699 -0.000003 -0.000001 -0.000000 4.911456 7.752483 -44.887877 2.046414 0.814409 -45.446972 -0.000001 0.000000 -0.000000 -0.000002 0.000001 0.000004 5.136813 17.382611 7.477155 14.034100 22.826735 31.042274 0.000027 121.743956 -0.000028 2.429538 -25.805969 9.048788 -1.849256 -3.581790 -6.586138 4.637200 -8.634130 -0.225406 0.000003 -0.000001 -0.000001 0.013952 -0.441476 3.625099 0.176774 -1.560948 12.920984 -0.000002 -0.000001 0.000002 0.522916 -2.650086 22.321574 0.387270 -2.292337 19.175949 0.000001 -0.000002 0.000001 0.723841 -3.093978 26.329770 0.387241 -2.292321 19.175961 -0.000000 0.000002 0.000001 1.074273 -3.717926 32.222896 0.387274 -2.292338 19.175930 0.000001 0.000002 -0.000001 0.000002 -0.000000 -0.000001 0.000002 -0.000002 0.000000 0.000002 -0.000002 0.000000 0.000002 -0.000002 0.000000 0.000002 -0.000002 0.000000 0.000002 -0.000002 0.000000 0.000001 -0.000002 0.000000 0.000002 -0.000002 0.000000 0.000002 -0.000002 0.000000 0.000001 -0.000002 0.000000 0.000000 -0.000002 0.000000 0.000000 -0.000002 0.000000 -0.000000 -0.000001 0.000000 
-0.709514 43.850990 -2.112463 0.698218 -24.232750 9.370059 0.000000 0.000003 -0.000001 -79.951141 -8.861537 47.134698 74.577101 6.934522 -5.729025 22.731670 -1.512508 -11.575003 -0.000000 -0.000001 -0.000000 -0.000000 -0.000001 0.000000 -0.000000 0.000000 0.000001 -23.523573 -6.362993 -17.378006 107.765420 4.988694 -1.103576 24.773863 3.412997 20.727870 -0.000001 0.000000 -0.000001 -0.000001 0.000000 -0.000001 -0.000000 0.000000 -0.000002 2.858181 -1.293458 -6.008479 2.224217 -1.288404 -3.033396 2.230124 -1.286489 -3.030590 -3.922924 3.288501 2.958156 -0.049251 19.944313 2.683307 0.000000 0.000000 -0.000000 0.000000 0.000000 -0.000000 0.000000 0.000000 -0.000000 0.482385 1.632741 1.765588 -1.851254 -11.677332 -58.833194 0.000023 -83.371140 -0.000011 -56.190696 17.156023 27.669289 -1.540051 3.690178 6.142352 3.939065 7.948714 0.746809 -0.000000 0.000002 0.000001 1.016542 3.605843 -31.478689 1.016540 3.605843 -31.478709 -0.000000 -0.000001 -0.000004 1.299291 4.030455 -35.722873 1.301556 4.033587 -35.754988 0.000002 0.000001 0.000000 1.751617 4.592877 -41.733685 1.751617 4.592883 -41.733699 -0.000003 0.000000 -0.000002 4.911456 7.752490 -44.887877 2.046413 0.814410 -45.446979 -0.000003 0.000001 -0.000002 0.000001 0.000001 0.000004 5.151221 17.427060 7.474814 14.053414 22.660440 31.058113 0.000026 121.812326 -0.000028 2.471109 -25.904522 9.104234 -1.849253 -3.581788 -6.586133 4.637200 -8.634132 -0.225406 0.000003 0.000003 -0.000000 0.013973 -0.441484 3.625070 0.176777 -1.560932 12.920987 0.000000 0.000001 0.000005 0.522939 -2.650104 22.321543 0.387261 -2.292312 19.175944 -0.000003 -0.000002 0.000001 0.723860 -3.093988 26.329727 0.387256 -2.292315 19.175947 -0.000001 -0.000002 -0.000002 1.074278 -3.717928 32.222855 0.387276 -2.292311 19.175934 -0.000001 -0.000003 0.000001 0.000001 0.000000 -0.000001 0.000000 0.000002 -0.000000 0.000000 0.000002 -0.000000 0.000000 0.000002 -0.000000 0.000000 0.000002 -0.000000 0.000000 0.000002 0.000000 -0.000000 0.000002 0.000000 0.000000 0.000002 -0.000000 0.000000 0.000002 0.000000 -0.000000 0.000002 0.000000 -0.000000 -0.000001 0.000000 -0.000000 -0.000001 0.000000 0.000000 0.000003 -0.000001 
-0.717669 43.858810 -2.111980 0.725796 -24.200004 9.374265 -0.000000 -0.000001 0.000001 -79.943655 -8.907187 47.096770 74.565257 6.965143 -5.773152 22.745978 -1.509555 -11.535179 0.000000 0.000000 -0.000000 0.000000 0.000000 0.000000 -0.000000 -0.000002 -0.000001 -23.601415 -6.396150 -17.369152 107.841905 4.875459 -1.091850 24.692324 3.383620 20.635578 -0.000000 -0.000000 -0.000002 -0.000000 -0.000000 -0.000002 -0.000000 0.000000 -0.000001 2.859847 -1.303659 -6.012730 2.223864 -1.290197 -3.038300 2.230376 -1.288414 -3.035256 -3.886559 3.294389 2.964090 -0.011394 19.978532 2.670441 0.000000 0.000000 0.000001 0.000000 0.000000 0.000001 0.000000 0.000000 0.000001 0.506471 1.585640 1.768912 -1.905214 -11.648053 -58.840611 0.000336 -83.445917 0.000337 -56.101617 17.119292 27.700862 -1.540051 3.690176 6.142350 3.939066 7.948708 0.746808 -0.000001 0.000001 -0.000000 1.016542 3.605834 -31.478689 1.016540 3.605837 -31.478706 -0.000006 0.000000 -0.000002 1.299290 4.030451 -35.722873 1.301553 4.033591 -35.754988 -0.000005 -0.000001 0.000002 1.751616 4.592874 -41.733692 1.751611 4.592888 -41.733706 0.000003 0.000002 -0.000002 4.911454 7.752487 -44.887873 2.046412 0.814407 -45.446979 -0.000002 0.000000 0.000002 -0.000000 0.000001 0.000002 5.163595 17.463971 7.466051 14.080612 22.520693 31.066822 0.000026 121.886638 -0.000028 2.595683 -26.024050 9.128059 -1.849248 -3.581791 -6.586140 4.637201 -8.634132 -0.225408 -0.000003 0.000001 0.000001 0.013968 -0.441488 3.625073 0.176780 -1.560952 12.920975 -0.000000 -0.000001 0.000002 0.522932 -2.650104 22.321538 0.387284 -2.292316 19.175920 0.000001 -0.000000 -0.000000 0.723848 -3.093994 26.329736 0.387274 -2.292319 19.175923 0.000000 -0.000002 0.000000 1.074293 -3.717916 32.222845 0.387265 -2.292310 19.175937 0.000001 0.000002 0.000001 0.000001 -0.000003 -0.000001 0.000001 -0.000001 0.000000 0.000001 -0.000001 0.000000 0.000001 -0.000001 0.000000 0.000001 -0.000001 0.000000 0.000001 -0.000001 0.000000 0.000001 0.000001 0.000000 0.000001 -0.000001 0.000000 0.000001 -0.000001 0.000000 0.000001 0.000001 0.000000 0.000000 -0.000003 0.000000 0.000000 -0.000003 0.000000 -0.000000 -0.000001 0.000001 
-0.726693 43.866577 -2.114340 0.749719 -24.175859 9.379557 -0.000000 -0.000001 0.000001 -79.922714 -8.951589 47.063603 74.549288 6.999143 -5.816833 22.760957 -1.509395 -11.512598 -0.000000 0.000001 0.000000 -0.000000 0.000001 0.000000 0.000001 0.000001 0.000001 -23.667884 -6.426680 -17.360604 107.903240 4.770240 -1.084455 24.620260 3.360690 20.569383 -0.000001 -0.000001 -0.000003 -0.000001 -0.000001 -0.000003 -0.000000 -0.000000 -0.000002 2.865527 -1.314245 -6.017859 2.225576 -1.291794 -3.043521 2.232486 -1.289749 -3.040205 -3.853553 3.304077 2.962691 -0.005856 20.019086 2.662788 0.000000 -0.000000 -0.000000 0.000000 -0.000000 -0.000000 0.000000 -0.000000 -0.000000 0.522518 1.557775 1.745666 -1.958940 -11.606914 -58.821534 0.000139 -83.536806 0.000125 -56.009791 17.105208 27.723931 -1.540051 3.690178 6.142350 3.939067 7.948710 0.746808 -0.000000 -0.000000 -0.000000 1.016541 3.605842 -31.478689 1.016541 3.605844 -31.478716 -0.000003 0.000000 -0.000002 1.299292 4.030448 -35.722880 1.301553 4.033590 -35.754992 -0.000001 -0.000000 0.000000 1.751616 4.592874 -41.733682 1.751616 4.592886 -41.733702 0.000001 0.000002 -0.000004 4.911453 7.752486 -44.887873 2.046410 0.814409 -45.446976 0.000001 0.000002 0.000000 -0.000001 -0.000002 0.000000 5.172910 17.491992 7.451952 14.105761 22.416230 31.064096 0.000060 121.951361 -0.000050 2.794222 -26.106467 9.140190 -1.849251 -3.581790 -6.586137 4.637202 -8.634134 -0.225407 -0.000002 -0.000000 0.000001 0.013969 -0.441471 3.625081 0.176766 -1.560946 12.920998 0.000000 -0.000000 0.000002 0.522932 -2.650090 22.321559 0.387269 -2.292315 19.175942 -0.000002 -0.000003 -0.000000 0.723845 -3.093975 26.329753 0.387260 -2.292321 19.175942 0.000000 -0.000001 0.000002 1.074277 -3.717912 32.222872 0.387272 -2.292339 19.175929 -0.000000 -0.000003 0.000001 0.000003 -0.000000 -0.000003 0.000000 -0.000001 -0.000000 0.000000 -0.000001 -0.000000 0.000000 -0.000001 -0.000000 0.000000 -0.000001 -0.000000 0.000000 -0.000001 -0.000000 -0.000001 -0.000001 -0.000000 0.000000 -0.000001 -0.000000 0.000000 -0.000001 -0.000000 -0.000001 -0.000001 -0.000000 0.000000 0.000000 0.000000 0.000000 0.000000 0.000000 -0.000000 -0.000001 0.000001 
